<svg xmlns="http://www.w3.org/2000/svg" xmlns:xlink="http://www.w3.org/1999/xlink" viewBox="0 0 104 135.36"><defs><style>.cls-1{isolation:isolate;}.cls-2{opacity:0.2;mix-blend-mode:multiply;fill:url(#radial-gradient);}.cls-3{fill:#388e3c;}.cls-4,.cls-5{fill:#fff;}.cls-4{stroke:#a5d6a7;stroke-miterlimit:10;stroke-width:2.52px;}.cls-5{opacity:0.23;mix-blend-mode:overlay;}</style><radialGradient id="radial-gradient" cx="51.63" cy="1715.7" r="68.19" gradientTransform="translate(12.62 -272.26) scale(0.76 0.23)" gradientUnits="userSpaceOnUse"><stop offset="0.18" stop-color="#424242"/><stop offset="0.25" stop-color="#6c6c6c"/><stop offset="0.33" stop-color="#939393"/><stop offset="0.41" stop-color="#b4b4b4"/><stop offset="0.49" stop-color="#d0d0d0"/><stop offset="0.59" stop-color="#e5e5e5"/><stop offset="0.69" stop-color="#f4f4f4"/><stop offset="0.81" stop-color="#fcfcfc"/><stop offset="1" stop-color="#fff"/></radialGradient></defs><title>Ativo 6</title><g class="cls-1"><g id="Camada_2" data-name="Camada 2"><g id="objects"><ellipse class="cls-2" cx="52" cy="119.78" rx="52" ry="15.58"/><path class="cls-3" d="M94.74,46.14c0,30.4-42.74,75.41-42.74,75.41S9.26,76.54,9.26,46.14,28.4,0,52,0,94.74,15.74,94.74,46.14Z"/><circle class="cls-4" cx="52" cy="43.34" r="32.78"/><circle class="cls-3" cx="52" cy="31.96" r="10.31" transform="translate(-7.18 46.91) rotate(-45.75)"/><path class="cls-3" d="M61.71,40.39h-.19a12.46,12.46,0,0,1-19,0h-.19a8.51,8.51,0,0,0-8.48,8.48V61.41h6.27v-7a1.41,1.41,0,1,1,2.82,0v7H61.24v-7a1.41,1.41,0,1,1,2.82,0v7h6.13V48.87A8.51,8.51,0,0,0,61.71,40.39Z"/><path class="cls-5" d="M52,0V121.55s42.74-45,42.74-75.41S75.6,0,52,0Z"/></g></g></g></svg>