<?xml version="1.0"?>
<svg xmlns="http://www.w3.org/2000/svg" xmlns:xlink="http://www.w3.org/1999/xlink" version="1.1" id="Layer_1" x="0px" y="0px" viewBox="0 0 512 512" style="enable-background:new 0 0 512 512;" xml:space="preserve" width="512px" height="512px" class=""><g><g>
	<circle style="fill:#C6EBEE" cx="312.889" cy="125.156" r="62.578" data-original="#1B4145" class="" data-old_color="#C9ECEF"/>
	<path style="fill:#C6EBEE" d="M312.889,221.867c-69.121,0-125.156,56.034-125.156,125.156h250.311   C438.044,277.901,382.01,221.867,312.889,221.867z" data-original="#1B4145" class="" data-old_color="#C9ECEF"/>
</g><g>
	<circle style="fill:#609399;" cx="125.156" cy="125.156" r="62.578" data-original="#609399"/>
	<path style="fill:#609399;" d="M125.156,221.867C56.034,221.867,0,277.901,0,347.022h250.311   C250.311,277.901,194.277,221.867,125.156,221.867z" data-original="#609399"/>
</g><circle style="fill:#CE4E49" cx="438.044" cy="375.467" r="73.956" data-original="#F14742" class="active-path" data-old_color="#CE4F4A"/><path style="fill:#FFFFFF" d="M466.489,366.933h-19.911v-19.911c0-4.714-3.821-8.533-8.533-8.533s-8.533,3.82-8.533,8.533v19.911  H409.6c-4.713,0-8.533,3.82-8.533,8.533S404.887,384,409.6,384h19.911v19.911c0,4.714,3.821,8.533,8.533,8.533  s8.533-3.82,8.533-8.533V384h19.911c4.713,0,8.533-3.82,8.533-8.533S471.202,366.933,466.489,366.933z" data-original="#FFFFFF" class=""/></g> </svg>
