<svg width="512" height="512" xmlns="http://www.w3.org/2000/svg">

 <g>
  <title>background</title>
  <rect fill="none" id="canvas_background" height="402" width="582" y="-1" x="-1"/>
 </g>
 <g>
  <title>Layer 1</title>
  <g id="svg_1">
   <g id="svg_2">
    <circle id="svg_3" fill="#C6EBEE" r="62.577999" cy="123.407012" cx="312.889"/>
    <path id="svg_4" fill="#C6EBEE" d="m312.889,220.118012c-69.121,0 -125.156,56.034 -125.156,125.156l250.311,0c0,-69.122 -56.034,-125.156 -125.155,-125.156z"/>
   </g>
   <g id="svg_5">
    <circle id="svg_6" fill="#609399" r="62.578" cy="125.156" cx="125.156"/>
    <path id="svg_7" fill="#609399" d="m125.156,221.867c-69.122,0 -125.156,56.034 -125.156,125.155l250.311,0c0,-69.121 -56.034,-125.155 -125.155,-125.155z"/>
   </g>
   <circle id="svg_8" fill="#CE4E49" class="active-path" r="73.956" cy="375.467" cx="438.044"/>
   <path id="svg_9" fill="#FFFFFF" d="m466.489,366.933l-19.911,0l0,-19.911c0,-4.714 -3.821,-8.533 -8.533,-8.533s-8.533,3.82 -8.533,8.533l0,19.911l-19.912,0c-4.713,0 -8.533,3.82 -8.533,8.533s3.82,8.534 8.533,8.534l19.911,0l0,19.911c0,4.714 3.821,8.533 8.533,8.533s8.533,-3.82 8.533,-8.533l0,-19.911l19.911,0c4.713,0 8.533,-3.82 8.533,-8.533s-3.819,-8.534 -8.532,-8.534z"/>
  </g>
 </g>
</svg>