<?xml version="1.0" encoding="utf-8"?>
<!-- Generator: Adobe Illustrator 22.1.0, SVG Export Plug-In . SVG Version: 6.00 Build 0)  -->
<svg version="1.1" xmlns="http://www.w3.org/2000/svg" xmlns:xlink="http://www.w3.org/1999/xlink" x="0px" y="0px"
	 viewBox="0 0 512 512" style="enable-background:new 0 0 512 512;" xml:space="preserve">
<style type="text/css">
	.st0{fill:#FFFFFF;stroke:#000000;stroke-miterlimit:10;}
	.st1{fill:#00B7FF;}
</style>
<g id="Camada_2">
	<ellipse class="st0" cx="250.5" cy="273" rx="196.5" ry="160"/>
</g>
<g id="Capa_1">
	<g>
		<g>
			<g>
				<path class="st1" d="M421.4,292.4c0-4.8-1.9-8.2-5.6-10.2l-55.8-26.6c6.5-4.1,11.7-9.9,15.6-17.4c3.9-7.5,5.9-16,5.9-25.6
					c0-13.3-4-24.7-12-34.3c-8-9.6-17.8-14.3-29.4-14.3c-4.1,0-7.9,0.7-11.5,2c-3.6,1.4-6.9,3.1-10,5.1c3.8,10.2,5.6,20.7,5.6,31.2
					c0,16.7-4.4,31.9-13.3,45.6c1.7,1.7,3.3,3.2,4.9,4.6c1.5,1.4,3.2,2.6,4.9,3.6l36.4,16.9c5.1,2.7,9.2,6.6,12.3,11.5
					s4.6,10.5,4.6,16.6v47.1h38.4c2.7,0,4.9-1.1,6.7-3.3c1.7-2.2,2.6-4.9,2.6-7.9L421.4,292.4L421.4,292.4z M356.4,301.1
					c0-6.1-2.4-10.2-7.2-12.3l-48.6-23.6l-20.5-9.7c4.4-2.7,8.5-6.2,12-10.5c3.6-4.3,6.6-9.1,9-14.6c1.7-4.1,3.2-8.5,4.3-13.3
					c1.2-4.8,1.8-9.7,1.8-14.8c0-2.7-0.2-5.4-0.5-7.9c-0.3-2.6-0.9-5.2-1.5-7.9c-3.1-13-9.1-23.6-18.2-31.7
					c-9-8.2-19.5-12.3-31.5-12.3c-11.9,0-22.4,4-31.2,12c-8.9,8-14.8,18.2-17.9,30.5c-1.7,6.1-2.6,11.9-2.6,17.4
					c0,10.2,2.2,20.1,6.7,29.7c5.1,10.2,12.1,18.3,21,24.1l-19.5,9.2l-50.2,23c-5.1,2.4-7.7,6.7-7.7,12.8v47.1v8.2
					c0,3.8,1.1,6.9,3.3,9.5s5,3.8,8.4,3.8h179.2c3.1,0,5.7-1.3,7.9-3.8c2.2-2.6,3.3-5.7,3.3-9.5v-8.2L356.4,301.1L356.4,301.1z
					 M137.2,301.1c0-6.1,1.5-11.7,4.6-16.6c3.1-4.9,7.2-8.8,12.3-11.5l37.9-17.4c3.4-2,6.1-4.4,8.2-7.2c-4.4-6.5-7.9-13.7-10.2-21.5
					c-2.4-7.9-3.6-16-3.6-24.6c0-5.8,0.6-11.3,1.8-16.6c1.2-5.3,2.6-10.3,4.4-15.1c-6.1-4.4-13-6.7-20.5-6.7
					c-11.6,0-21.4,4.8-29.4,14.3s-12,21-12,34.3c0,9.6,2,18.2,6.1,25.9s9.6,13.6,16.4,17.7l-56.8,26.1c-3.8,1.7-5.6,5.1-5.6,10.2
					v44.5c0,3.1,0.9,5.7,2.6,7.9c1.7,2.2,3.9,3.3,6.7,3.3h37.4L137.2,301.1L137.2,301.1z M256,0c35.2,0,68.4,6.7,99.6,20.2
					S414,52,437,75c23,23,41.3,50.2,54.8,81.4S512,220.8,512,256c0,23.6-3.1,46.3-9.2,68.1c-6.1,21.8-14.8,42.2-25.9,61.2
					c-11.1,18.9-24.4,36.2-39.9,51.7c-15.5,15.5-32.8,28.8-51.7,39.9c-18.9,11.1-39.3,19.7-61.2,25.9c-21.8,6.1-44.5,9.2-68.1,9.2
					s-46.3-3.1-68.1-9.2c-21.8-6.1-42.2-14.8-61.2-25.9S90.5,452.5,75,437c-15.5-15.5-28.8-32.8-39.9-51.7
					C24,366.3,15.4,345.9,9.2,324.1C3.1,302.3,0,279.6,0,256s3.1-46.3,9.2-68.1s14.8-42.2,25.9-61.2S59.5,90.5,75,75
					s32.8-28.8,51.7-39.9s39.3-19.7,61.2-25.9S232.4,0,256,0z"/>
			</g>
		</g>
	</g>
</g>
</svg>
