<?xml version="1.0"?>
<svg xmlns="http://www.w3.org/2000/svg" xmlns:xlink="http://www.w3.org/1999/xlink" version="1.1" id="Capa_1" x="0px" y="0px" viewBox="0 0 512 512" style="enable-background:new 0 0 512 512;" xml:space="preserve" width="512px" height="512px" class=""><g><path style="fill:#00BFFF" d="M257,0C116.3,0,0,114.3,0,255s116.3,257,257,257s255-116.3,255-257S397.7,0,257,0z" data-original="#FD003A" class="" data-old_color="#00AFFF"/><path style="fill:#00ACE5" d="M512,255c0,140.7-114.3,257-255,257V0C397.7,0,512,114.3,512,255z" data-original="#DD0030" class="active-path" data-old_color="#00ADE5"/><path style="fill:#E1E4FB" d="M422,255c0,16.5-13.5,30-30,30H120c-16.5,0-30-13.5-30-30s13.5-30,30-30h272  C408.5,225,422,238.5,422,255z" data-original="#E1E4FB" class=""/><path style="fill:#C5C9F7" d="M422,255c0,16.5-13.5,30-30,30H257v-60h135C408.5,225,422,238.5,422,255z" data-original="#C5C9F7" class=""/></g> </svg>
