<?xml version="1.0" encoding="iso-8859-1"?>
<!-- Generator: Adobe Illustrator 19.0.0, SVG Export Plug-In . SVG Version: 6.00 Build 0)  -->
<svg version="1.1" id="Capa_1" xmlns="http://www.w3.org/2000/svg" xmlns:xlink="http://www.w3.org/1999/xlink" x="0px" y="0px"
	 viewBox="0 0 512 512" style="enable-background:new 0 0 512 512;" xml:space="preserve">
<path style="fill:#FD3C65;" d="M255.999,0c-107.401,0-195,88.599-195,196c0,42.599,13.5,83.099,39,116.999l144,193.001
	c2.701,3.9,7.202,6,12.001,6s9.3-2.1,12.001-6l144-193.001c25.499-33.9,39-74.399,39-116.999C450.999,88.599,363.4,0,255.999,0z"/>
<path style="fill:#FD003A;" d="M450.999,196c0,42.599-13.5,83.099-39,116.999L268,506c-2.701,3.9-7.202,6-12.001,6V0
	C363.4,0,450.999,88.599,450.999,196z"/>
<path style="fill:#CAE8F9;" d="M390.999,196c0,39.899-17.701,75.599-45.601,100.199H166.6c-27.9-24.6-45.601-60.3-45.601-100.199
	c0-74.401,60.601-135,135-135S390.999,121.599,390.999,196z"/>
<path style="fill:#B7E0F6;" d="M390.999,196c0,39.899-17.701,75.599-45.601,100.199h-89.399V61
	C330.398,61,390.999,121.599,390.999,196z"/>
<path style="fill:#787780;" d="M420.999,497c0,8.399-6.599,15-15,15h-300c-8.401,0-15-6.601-15-15c0-8.401,6.599-15,15-15h300
	C414.4,482,420.999,488.599,420.999,497z"/>
<path style="fill:#57555C;" d="M420.999,497c0,8.399-6.599,15-15,15h-150v-30h150C414.4,482,420.999,488.599,420.999,497z"/>
<path style="fill:#1689FC;" d="M345.398,296.199C321.699,317.5,290.5,331,255.999,331s-65.7-13.5-89.399-34.801
	C168.998,248.8,208,211,255.999,211S343,248.8,345.398,296.199z"/>
<path style="fill:#415BE8;" d="M345.398,296.199C321.699,317.5,290.5,331,255.999,331V211C303.998,211,343,248.8,345.398,296.199z"
	/>
<path style="fill:#17ACE8;" d="M255.999,121c-32.999,0-60,26.999-60,60c0,32.999,27.001,60,60,60s60-27.001,60-60
	C315.999,147.999,288.998,121,255.999,121z"/>
<path style="fill:#1689FC;" d="M255.999,241V121c32.999,0,60,26.999,60,60C315.999,213.999,288.998,241,255.999,241z"/>
<g>
</g>
<g>
</g>
<g>
</g>
<g>
</g>
<g>
</g>
<g>
</g>
<g>
</g>
<g>
</g>
<g>
</g>
<g>
</g>
<g>
</g>
<g>
</g>
<g>
</g>
<g>
</g>
<g>
</g>
</svg>
